<?xml version="1.0" encoding="UTF-8"?>
<svg version="1.1" xmlns="http://www.w3.org/2000/svg" width="200" height="200">
<path d="M0 0 C6.6 0 13.2 0 20 0 C20 35.97 20 71.94 20 109 C13.4 109 6.8 109 0 109 C0 73.03 0 37.06 0 0 Z " fill="#000000" transform="translate(135,49)"/>
<path d="M0 0 C11.88 0 23.76 0 36 0 C36 12.21 36 24.42 36 37 C31.38 37 26.76 37 22 37 C21.505 31.555 21.505 31.555 21 26 C20.12085937 27.21558594 19.24171875 28.43117188 18.3359375 29.68359375 C8.36457035 42.08588297 8.36457035 42.08588297 0.37939453 43.75830078 C-4.97757149 44.13792829 -10.13295227 44.10320264 -15.48876953 43.71655273 C-22.38204947 43.13137175 -22.38204947 43.13137175 -28.50341797 45.76928711 C-30.57525675 48.07361985 -32.29892894 50.41274221 -34 53 C-34.90952864 54.17353586 -35.82530932 55.34227983 -36.75 56.50390625 C-37.4925 57.51324219 -38.235 58.52257812 -39 59.5625 C-40.1446875 61.11130859 -40.1446875 61.11130859 -41.3125 62.69140625 C-41.869375 63.45324219 -42.42625 64.21507813 -43 65 C-45.79108116 63.67855892 -48.25786389 62.19617639 -50.75 60.375 C-51.67039063 59.70597656 -51.67039063 59.70597656 -52.609375 59.0234375 C-53.06828125 58.68570313 -53.5271875 58.34796875 -54 58 C-53.40109671 54.7907075 -52.38996112 52.92084407 -50.3046875 50.42578125 C-49.47710937 49.42321289 -49.47710937 49.42321289 -48.6328125 48.40039062 C-48.05273438 47.71138672 -47.47265625 47.02238281 -46.875 46.3125 C-45.74637458 44.95527568 -44.61877632 43.59719657 -43.4921875 42.23828125 C-42.90840332 41.55813965 -42.32461914 40.87799805 -41.72314453 40.17724609 C-39.93234921 38.01771476 -39.93234921 38.01771476 -38.52294922 35.48291016 C-36.86349793 32.80071867 -35.50033021 30.93620793 -33 29 C-28.75120396 28.19911609 -24.69252741 28.36996617 -20.38897705 28.63619995 C-8.64142924 29.44813511 -8.64142924 29.44813511 1.859375 25.07421875 C5.07734561 22.04387276 7.62956944 18.72126544 10 15 C6.7 14.67 3.4 14.34 0 14 C0 9.38 0 4.76 0 0 Z " fill="#000000" transform="translate(94,35)"/>
<path d="M0 0 C6.6 0 13.2 0 20 0 C20 25.74 20 51.48 20 78 C13.4 78 6.8 78 0 78 C0 52.26 0 26.52 0 0 Z " fill="#000000" transform="translate(107,80)"/>
<path d="M0 0 C6.6 0 13.2 0 20 0 C20 20.79 20 41.58 20 63 C13.4 63 6.8 63 0 63 C0 42.21 0 21.42 0 0 Z " fill="#000000" transform="translate(78,95)"/>
<path d="M0 0 C6.6 0 13.2 0 20 0 C20 13.86 20 27.72 20 42 C13.4 42 6.8 42 0 42 C0 28.14 0 14.28 0 0 Z " fill="#000000" transform="translate(48,117)"/>
</svg>
